HIERARCHY
ROOT Hips
{
 OFFSET 0.000000 0.000000 0.000000
 CHANNELS 6 Xposition Yposition Zposition Yrotation Xrotation Zrotation
 JOINT Chest
 {
  OFFSET 0.000000 9.585900 0.002600
  CHANNELS 3 Yrotation Xrotation Zrotation
  JOINT Chest2
  {
   OFFSET 0.000000 9.601200 -0.005300
   CHANNELS 3 Yrotation Xrotation Zrotation
   JOINT Chest3
   {
    OFFSET 0.000000 9.561800 0.000000
    CHANNELS 3 Yrotation Xrotation Zrotation
    JOINT Chest4
    {
     OFFSET 0.000000 9.552100 0.000000
     CHANNELS 3 Yrotation Xrotation Zrotation
     JOINT Neck
     {
      OFFSET 0.000000 14.453000 0.000000
      CHANNELS 3 Yrotation Xrotation Zrotation
      JOINT Head
      {
       OFFSET 0.000000 8.936500 -0.011300
       CHANNELS 3 Yrotation Xrotation Zrotation
       End Site
       {
        OFFSET 0.000000 17.073600 -0.006000
       }
      }
     }
     JOINT RightCollar
     {
      OFFSET -2.921100 9.558500 0.000000
      CHANNELS 3 Yrotation Xrotation Zrotation
      JOINT RightShoulder
      {
       OFFSET -13.519700 0.000000 0.000000
       CHANNELS 3 Yrotation Xrotation Zrotation
       JOINT RightElbow
       {
        OFFSET 0.000000 -29.696600 0.000000
        CHANNELS 3 Yrotation Xrotation Zrotation
        JOINT RightWrist
        {
         OFFSET 0.000000 -24.004700 0.000000
         CHANNELS 3 Yrotation Xrotation Zrotation
         End Site
         {
          OFFSET 0.000000 -17.728500 0.000000
         }
        }
       }
      }
     }
     JOINT LeftCollar
     {
      OFFSET 2.921100 9.558500 0.000000
      CHANNELS 3 Yrotation Xrotation Zrotation
      JOINT LeftShoulder
      {
       OFFSET 13.519700 0.000000 0.000000
       CHANNELS 3 Yrotation Xrotation Zrotation
       JOINT LeftElbow
       {
        OFFSET 0.000000 -29.696600 0.000000
        CHANNELS 3 Yrotation Xrotation Zrotation
        JOINT LeftWrist
        {
         OFFSET 0.000000 -24.004700 0.000000
         CHANNELS 3 Yrotation Xrotation Zrotation
         End Site
         {
          OFFSET 0.000000 -17.728500 0.000000
         }
        }
       }
      }
     }
    }
   }
  }
 }
 JOINT RightHip
 {
  OFFSET -7.771700 -0.012900 -0.001300
  CHANNELS 3 Yrotation Xrotation Zrotation
  JOINT RightKnee
  {
   OFFSET 0.000000 -40.869800 0.001200
   CHANNELS 3 Yrotation Xrotation Zrotation
   JOINT RightAnkle
   {
    OFFSET 0.000000 -39.717900 0.002100
    CHANNELS 3 Yrotation Xrotation Zrotation
    JOINT RightToe
    {
     OFFSET 0.000000 -4.965400 11.033500
     CHANNELS 3 Yrotation Xrotation Zrotation
     End Site
     {
      OFFSET 0.000000 -1.423100 5.872300
     }
    }
   }
  }
 }
 JOINT LeftHip
 {
  OFFSET 7.771700 -0.012900 -0.001300
  CHANNELS 3 Yrotation Xrotation Zrotation
  JOINT LeftKnee
  {
   OFFSET 0.000000 -40.869800 0.001200
   CHANNELS 3 Yrotation Xrotation Zrotation
   JOINT LeftAnkle
   {
    OFFSET 0.000000 -39.717900 0.002100
    CHANNELS 3 Yrotation Xrotation Zrotation
    JOINT LeftToe
    {
     OFFSET 0.000000 -4.965400 11.033500
     CHANNELS 3 Yrotation Xrotation Zrotation
     End Site
     {
      OFFSET 0.000000 -1.423100 5.872300
     }
    }
   }
  }
 }
}
MOTION
Frames: 5
Frame Time: 0.008333
0.000000 85.388000 0.000000 0.000000 -5.767877 0.000000 0.000000 11.653817 0.000000 0.000000 -5.885947 0.000000 0.000000 -0.000000 0.000000 0.000000 -0.000000 0.000000 0.000000 12.528835 0.000000 0.000000 0.711642 0.000000 0.000000 -0.000000 0.000000 0.000000 0.000000 -90.000000 0.000000 -2.309062 0.000000 0.000000 2.309062 0.000000 0.000000 -0.000000 0.000000 0.000000 -0.000000 90.000000 0.000000 -2.309062 0.000000 0.000000 2.309062 0.000000 0.000000 8.520406 0.000000 0.000000 1.905762 0.000000 -0.000000 -4.658285 0.000000 0.000000 -0.000000 0.000000 0.000000 8.520406 0.000000 0.000000 1.905762 0.000000 -0.000000 -4.658285 0.000000 0.000000 -0.000000 0.000000
-22.656482 46.694025 27.034120 179.382170 -28.569260 -3.767096 -0.972704 17.486402 1.512038 -0.077203 1.937431 0.245413 -0.123737 3.216799 0.406059 -0.423639 15.459989 1.973246 -6.386069 19.229632 0.970357 -11.885863 0.245789 3.771028 -2.811472 3.310073 -3.558191 -7.948995 -7.237575 -15.435068 -161.563317 -65.667998 -165.859176 3.397077 -7.242455 -34.824510 -1.425950 0.165870 2.572512 -1.292150 -1.564025 13.907021 116.129726 -84.265445 -149.098329 -4.486523 13.701082 10.339367 8.827779 -57.788695 -14.120416 -167.867232 79.426553 -161.096188 -6.720757 -12.542530 -0.303593 -0.079664 -0.305701 0.371229 -3.919368 -59.661119 10.008104 -110.852764 80.375646 -114.846798 6.696334 -7.616242 4.775239 0.522524 0.557800 0.317028
-22.666049 46.693073 27.035799 179.483828 -28.570559 -3.757874 -1.030281 17.453691 1.524624 -0.103793 1.960088 0.220928 -0.134976 3.216244 0.409272 -0.486807 15.449161 1.975780 -6.330664 19.250336 0.934160 -11.707331 0.269177 3.718275 -2.846513 3.379289 -3.587893 -8.724414 -7.648195 -15.622157 -162.011955 -64.476627 -165.803298 3.558443 -7.643931 -35.042365 -1.386376 0.187190 2.544445 -1.248737 -1.513178 13.965708 116.118318 -84.261027 -149.107773 -4.484396 13.700676 10.339790 8.890196 -57.769135 -14.213919 -167.818599 79.411227 -161.088177 -6.750046 -12.548566 -0.290049 -0.091607 -0.298247 0.322652 -3.837776 -59.664414 9.886295 -110.684105 80.386513 -114.701143 6.659644 -7.568222 4.782132 0.513071 0.543951 0.349734
-22.667346 46.693059 27.036315 179.585588 -28.584295 -3.797618 -1.102945 17.444911 1.544279 -0.108746 1.966074 0.226011 -0.144295 3.183653 0.437721 -0.551637 15.468929 1.948830 -6.207032 19.273124 0.944373 -11.600857 0.308099 3.647246 -2.883454 3.445853 -3.619846 -9.493445 -8.103997 -15.813761 -162.227699 -63.352761 -165.954914 3.684480 -8.029324 -35.283229 -1.367581 0.211617 2.518026 -1.189379 -1.459155 14.026458 116.047369 -84.248056 -149.053422 -4.474330 13.696516 10.345696 8.946594 -57.739777 -14.227261 -167.572718 79.382231 -160.863648 -6.839155 -12.536545 -0.209416 -0.056125 -0.306596 0.264268 -3.790195 -59.658843 9.858554 -110.478528 80.357876 -114.504246 6.571585 -7.525678 4.800931 0.543788 0.543525 0.357355
-22.670729 46.692722 27.036031 179.684739 -28.603587 -3.823411 -1.175891 17.437700 1.547833 -0.119704 1.968015 0.229854 -0.150593 3.178125 0.435879 -0.583473 15.484343 1.939346 -6.131077 19.286437 0.957191 -11.470815 0.364742 3.591622 -2.922696 3.484332 -3.636203 -10.270800 -8.595072 -16.001932 -162.271826 -62.301427 -166.256075 3.771523 -8.395664 -35.585261 -1.390893 0.197841 2.516892 -1.119387 -1.384841 14.081618 115.922350 -84.233713 -148.935541 -4.461460 13.687699 10.352397 9.014569 -57.707526 -14.254177 -167.338548 79.348813 -160.655655 -6.881407 -12.526415 -0.282398 -0.078765 -0.316513 0.417787 -3.753259 -59.642962 9.823359 -110.270637 80.338782 -114.324910 6.504704 -7.489482 4.854886 0.546408 0.542521 0.351220
